<svg id="visual" viewBox="0 0 900 450" width="900" height="450" xmlns="http://www.w3.org/2000/svg" xmlns:xlink="http://www.w3.org/1999/xlink" version="1.1"><path d="M0 281L12.5 277.3C25 273.7 50 266.3 75 264.8C100 263.3 125 267.7 150 275.5C175 283.3 200 294.7 225 300.8C250 307 275 308 300 306C325 304 350 299 375 295.8C400 292.7 425 291.3 450 293.3C475 295.3 500 300.7 525 303C550 305.3 575 304.7 600 300.5C625 296.3 650 288.7 675 285.3C700 282 725 283 750 280.5C775 278 800 272 825 268.7C850 265.3 875 264.7 887.5 264.3L900 264L900 451L887.5 451C875 451 850 451 825 451C800 451 775 451 750 451C725 451 700 451 675 451C650 451 625 451 600 451C575 451 550 451 525 451C500 451 475 451 450 451C425 451 400 451 375 451C350 451 325 451 300 451C275 451 250 451 225 451C200 451 175 451 150 451C125 451 100 451 75 451C50 451 25 451 12.5 451L0 451Z" fill="#37ecba"></path><path d="M0 324L12.5 322.5C25 321 50 318 75 312.7C100 307.3 125 299.7 150 298.2C175 296.7 200 301.3 225 304.2C250 307 275 308 300 306.7C325 305.3 350 301.7 375 306.5C400 311.3 425 324.7 450 329.8C475 335 500 332 525 329.5C550 327 575 325 600 322.3C625 319.7 650 316.3 675 311.3C700 306.3 725 299.7 750 299C775 298.3 800 303.7 825 310.2C850 316.7 875 324.3 887.5 328.2L900 332L900 451L887.5 451C875 451 850 451 825 451C800 451 775 451 750 451C725 451 700 451 675 451C650 451 625 451 600 451C575 451 550 451 525 451C500 451 475 451 450 451C425 451 400 451 375 451C350 451 325 451 300 451C275 451 250 451 225 451C200 451 175 451 150 451C125 451 100 451 75 451C50 451 25 451 12.5 451L0 451Z" fill="#00c1b3"></path><path d="M0 326L12.5 331.8C25 337.7 50 349.3 75 350.2C100 351 125 341 150 335.5C175 330 200 329 225 327C250 325 275 322 300 324C325 326 350 333 375 337.5C400 342 425 344 450 345.7C475 347.3 500 348.7 525 348.2C550 347.7 575 345.3 600 341C625 336.7 650 330.3 675 329.3C700 328.3 725 332.7 750 338.3C775 344 800 351 825 352.8C850 354.7 875 351.3 887.5 349.7L900 348L900 451L887.5 451C875 451 850 451 825 451C800 451 775 451 750 451C725 451 700 451 675 451C650 451 625 451 600 451C575 451 550 451 525 451C500 451 475 451 450 451C425 451 400 451 375 451C350 451 325 451 300 451C275 451 250 451 225 451C200 451 175 451 150 451C125 451 100 451 75 451C50 451 25 451 12.5 451L0 451Z" fill="#00979f"></path><path d="M0 357L12.5 357.8C25 358.7 50 360.3 75 363.3C100 366.3 125 370.7 150 369.7C175 368.7 200 362.3 225 363.5C250 364.7 275 373.3 300 372.7C325 372 350 362 375 362.2C400 362.3 425 372.7 450 373.2C475 373.7 500 364.3 525 364.5C550 364.7 575 374.3 600 372.5C625 370.7 650 357.3 675 357.2C700 357 725 370 750 373.2C775 376.3 800 369.7 825 364.2C850 358.7 875 354.3 887.5 352.2L900 350L900 451L887.5 451C875 451 850 451 825 451C800 451 775 451 750 451C725 451 700 451 675 451C650 451 625 451 600 451C575 451 550 451 525 451C500 451 475 451 450 451C425 451 400 451 375 451C350 451 325 451 300 451C275 451 250 451 225 451C200 451 175 451 150 451C125 451 100 451 75 451C50 451 25 451 12.5 451L0 451Z" fill="#1b6e7e"></path><path d="M0 396L12.5 393C25 390 50 384 75 383.2C100 382.3 125 386.7 150 389.8C175 393 200 395 225 392C250 389 275 381 300 377.7C325 374.3 350 375.7 375 375.8C400 376 425 375 450 376.2C475 377.3 500 380.7 525 381.7C550 382.7 575 381.3 600 383C625 384.7 650 389.3 675 392.3C700 395.3 725 396.7 750 398.7C775 400.7 800 403.3 825 402.3C850 401.3 875 396.7 887.5 394.3L900 392L900 451L887.5 451C875 451 850 451 825 451C800 451 775 451 750 451C725 451 700 451 675 451C650 451 625 451 600 451C575 451 550 451 525 451C500 451 475 451 450 451C425 451 400 451 375 451C350 451 325 451 300 451C275 451 250 451 225 451C200 451 175 451 150 451C125 451 100 451 75 451C50 451 25 451 12.5 451L0 451Z" fill="#294755"></path><path d="M0 421L12.5 419.7C25 418.3 50 415.7 75 413.5C100 411.3 125 409.7 150 411.7C175 413.7 200 419.3 225 422C250 424.7 275 424.3 300 422C325 419.7 350 415.3 375 414.5C400 413.7 425 416.3 450 419.7C475 423 500 427 525 425.2C550 423.3 575 415.7 600 412.8C625 410 650 412 675 413C700 414 725 414 750 412.2C775 410.3 800 406.7 825 406.5C850 406.3 875 409.7 887.5 411.3L900 413L900 451L887.5 451C875 451 850 451 825 451C800 451 775 451 750 451C725 451 700 451 675 451C650 451 625 451 600 451C575 451 550 451 525 451C500 451 475 451 450 451C425 451 400 451 375 451C350 451 325 451 300 451C275 451 250 451 225 451C200 451 175 451 150 451C125 451 100 451 75 451C50 451 25 451 12.5 451L0 451Z" fill="#212529"></path></svg>