<svg id="visual" viewBox="0 0 960 540" width="960" height="540" xmlns="http://www.w3.org/2000/svg" xmlns:xlink="http://www.w3.org/1999/xlink" version="1.1"><path d="M0 329L13.3 332.2C26.7 335.3 53.3 341.7 80 349.7C106.7 357.7 133.3 367.3 160 372C186.7 376.7 213.3 376.3 240 368.8C266.7 361.3 293.3 346.7 320 336.7C346.7 326.7 373.3 321.3 400 323.7C426.7 326 453.3 336 480 346.7C506.7 357.3 533.3 368.7 560 366.7C586.7 364.7 613.3 349.3 640 349.2C666.7 349 693.3 364 720 371C746.7 378 773.3 377 800 367.7C826.7 358.3 853.3 340.7 880 332.5C906.7 324.3 933.3 325.7 946.7 326.3L960 327L960 541L946.7 541C933.3 541 906.7 541 880 541C853.3 541 826.7 541 800 541C773.3 541 746.7 541 720 541C693.3 541 666.7 541 640 541C613.3 541 586.7 541 560 541C533.3 541 506.7 541 480 541C453.3 541 426.7 541 400 541C373.3 541 346.7 541 320 541C293.3 541 266.7 541 240 541C213.3 541 186.7 541 160 541C133.3 541 106.7 541 80 541C53.3 541 26.7 541 13.3 541L0 541Z" fill="#37ecba"></path><path d="M0 373L13.3 373.2C26.7 373.3 53.3 373.7 80 381.2C106.7 388.7 133.3 403.3 160 403C186.7 402.7 213.3 387.3 240 385.5C266.7 383.7 293.3 395.3 320 400.2C346.7 405 373.3 403 400 398C426.7 393 453.3 385 480 389.2C506.7 393.3 533.3 409.7 560 408.2C586.7 406.7 613.3 387.3 640 378.2C666.7 369 693.3 370 720 377.8C746.7 385.7 773.3 400.3 800 402.5C826.7 404.7 853.3 394.3 880 389.3C906.7 384.3 933.3 384.7 946.7 384.8L960 385L960 541L946.7 541C933.3 541 906.7 541 880 541C853.3 541 826.7 541 800 541C773.3 541 746.7 541 720 541C693.3 541 666.7 541 640 541C613.3 541 586.7 541 560 541C533.3 541 506.7 541 480 541C453.3 541 426.7 541 400 541C373.3 541 346.7 541 320 541C293.3 541 266.7 541 240 541C213.3 541 186.7 541 160 541C133.3 541 106.7 541 80 541C53.3 541 26.7 541 13.3 541L0 541Z" fill="#00dad8"></path><path d="M0 435L13.3 435C26.7 435 53.3 435 80 438.8C106.7 442.7 133.3 450.3 160 448C186.7 445.7 213.3 433.3 240 425.5C266.7 417.7 293.3 414.3 320 413.2C346.7 412 373.3 413 400 418.3C426.7 423.7 453.3 433.3 480 440C506.7 446.7 533.3 450.3 560 449C586.7 447.7 613.3 441.3 640 437.2C666.7 433 693.3 431 720 436C746.7 441 773.3 453 800 455.3C826.7 457.7 853.3 450.3 880 449.3C906.7 448.3 933.3 453.7 946.7 456.3L960 459L960 541L946.7 541C933.3 541 906.7 541 880 541C853.3 541 826.7 541 800 541C773.3 541 746.7 541 720 541C693.3 541 666.7 541 640 541C613.3 541 586.7 541 560 541C533.3 541 506.7 541 480 541C453.3 541 426.7 541 400 541C373.3 541 346.7 541 320 541C293.3 541 266.7 541 240 541C213.3 541 186.7 541 160 541C133.3 541 106.7 541 80 541C53.3 541 26.7 541 13.3 541L0 541Z" fill="#3cc5e0"></path><path d="M0 499L13.3 495.5C26.7 492 53.3 485 80 481.5C106.7 478 133.3 478 160 479.5C186.7 481 213.3 484 240 483.3C266.7 482.7 293.3 478.3 320 478.5C346.7 478.7 373.3 483.3 400 485.2C426.7 487 453.3 486 480 485.7C506.7 485.3 533.3 485.7 560 483.8C586.7 482 613.3 478 640 482.3C666.7 486.7 693.3 499.3 720 500.7C746.7 502 773.3 492 800 483.7C826.7 475.3 853.3 468.7 880 466.2C906.7 463.7 933.3 465.3 946.7 466.2L960 467L960 541L946.7 541C933.3 541 906.7 541 880 541C853.3 541 826.7 541 800 541C773.3 541 746.7 541 720 541C693.3 541 666.7 541 640 541C613.3 541 586.7 541 560 541C533.3 541 506.7 541 480 541C453.3 541 426.7 541 400 541C373.3 541 346.7 541 320 541C293.3 541 266.7 541 240 541C213.3 541 186.7 541 160 541C133.3 541 106.7 541 80 541C53.3 541 26.7 541 13.3 541L0 541Z" fill="#72afd3"></path></svg>