<svg id="svg" version="1.1" xmlns="http://www.w3.org/2000/svg" xmlns:xlink="http://www.w3.org/1999/xlink" width="400" height="165.79476861167" viewBox="0, 0, 400,165.79476861167"><g id="svgg"><path id="path0" d="M33.667 5.653 C 33.667 5.738,33.442 5.856,33.167 5.917 C 32.892 5.977,32.667 6.096,32.667 6.180 C 32.667 6.264,32.547 6.333,32.402 6.333 C 32.128 6.333,30.667 7.732,30.667 7.994 C 30.667 8.076,30.573 8.242,30.458 8.363 C 29.772 9.089,29.750 9.316,29.750 15.767 C 29.750 20.518,29.799 22.033,29.958 22.192 C 30.073 22.306,30.167 22.535,30.167 22.700 C 30.167 22.865,30.242 23.000,30.333 23.000 C 30.425 23.000,30.500 23.081,30.500 23.180 C 30.500 23.465,32.101 25.000,32.399 25.000 C 32.546 25.000,32.667 25.075,32.667 25.167 C 32.667 25.258,32.773 25.333,32.903 25.333 C 33.033 25.333,33.170 25.427,33.208 25.542 C 33.311 25.848,123.356 25.848,123.458 25.542 C 123.497 25.427,123.634 25.333,123.764 25.333 C 123.894 25.333,124.000 25.258,124.000 25.167 C 124.000 25.075,124.131 24.998,124.292 24.996 C 124.611 24.991,126.167 23.491,126.167 23.188 C 126.167 23.085,126.242 23.000,126.333 23.000 C 126.425 23.000,126.500 22.856,126.500 22.681 C 126.500 22.505,126.594 22.330,126.708 22.292 C 126.870 22.238,126.917 20.763,126.917 15.667 C 126.917 10.570,126.870 9.096,126.708 9.042 C 126.594 9.003,126.500 8.866,126.500 8.736 C 126.500 8.606,126.430 8.500,126.345 8.500 C 126.259 8.500,126.137 8.337,126.074 8.138 C 125.919 7.649,124.603 6.333,124.268 6.333 C 124.121 6.333,124.000 6.264,124.000 6.180 C 124.000 6.096,123.775 5.977,123.500 5.917 C 123.225 5.856,123.000 5.738,123.000 5.653 C 123.000 5.560,105.430 5.500,78.333 5.500 C 51.237 5.500,33.667 5.560,33.667 5.653 M122.738 6.981 C 122.789 7.062,123.075 7.175,123.375 7.231 C 123.978 7.344,124.833 8.044,124.833 8.423 C 124.833 8.557,124.908 8.667,125.000 8.667 C 125.092 8.667,125.167 8.773,125.167 8.903 C 125.167 9.033,125.260 9.170,125.375 9.208 C 125.679 9.310,125.679 22.024,125.375 22.125 C 125.260 22.163,125.167 22.301,125.167 22.431 C 125.167 22.560,125.092 22.667,125.000 22.667 C 124.908 22.667,124.833 22.776,124.833 22.910 C 124.833 23.193,124.012 24.000,123.724 24.000 C 123.616 24.000,123.497 24.094,123.458 24.208 C 123.356 24.515,33.310 24.515,33.208 24.208 C 33.170 24.094,33.051 24.000,32.943 24.000 C 32.662 24.000,31.833 23.196,31.833 22.924 C 31.833 22.798,31.751 22.667,31.650 22.633 C 31.550 22.600,31.427 22.219,31.379 21.786 C 31.330 21.354,31.225 21.000,31.145 21.000 C 30.956 21.000,30.955 10.214,31.145 10.097 C 31.224 10.048,31.338 9.706,31.397 9.337 C 31.456 8.968,31.570 8.667,31.651 8.667 C 31.731 8.667,31.843 8.484,31.899 8.261 C 31.955 8.038,32.166 7.803,32.368 7.739 C 32.569 7.675,32.837 7.520,32.962 7.395 C 33.088 7.269,33.373 7.167,33.595 7.167 C 33.818 7.167,34.000 7.092,34.000 7.000 C 34.000 6.786,122.606 6.767,122.738 6.981 M94.000 72.646 C 94.000 72.726,93.700 72.839,93.333 72.897 C 92.967 72.956,92.667 73.078,92.667 73.169 C 92.667 73.259,92.585 73.333,92.486 73.333 C 92.252 73.333,90.602 74.993,90.456 75.376 C 90.394 75.536,90.266 75.667,90.172 75.667 C 90.077 75.667,90.000 75.850,90.000 76.073 C 90.000 76.297,89.925 76.527,89.833 76.583 C 89.727 76.649,89.667 78.891,89.667 82.762 C 89.667 88.682,89.712 89.281,90.186 89.667 C 90.242 89.712,90.344 89.928,90.412 90.146 C 90.575 90.668,91.878 92.000,92.226 92.000 C 92.377 92.000,92.500 92.075,92.500 92.167 C 92.500 92.258,92.606 92.333,92.736 92.333 C 92.866 92.333,93.003 92.427,93.042 92.542 C 93.097 92.706,97.800 92.768,115.514 92.835 L 137.917 92.920 116.417 93.001 L 94.917 93.082 116.250 93.127 C 132.568 93.162,137.672 93.126,137.962 92.973 C 138.252 92.820,138.386 92.819,138.537 92.970 C 138.686 93.119,143.855 93.157,160.075 93.126 L 181.417 93.085 160.083 93.001 L 138.750 92.917 161.153 92.833 C 178.867 92.767,183.570 92.706,183.625 92.542 C 183.663 92.427,183.801 92.333,183.931 92.333 C 184.060 92.333,184.167 92.258,184.167 92.167 C 184.167 92.075,184.269 92.000,184.393 92.000 C 184.660 92.000,185.833 90.932,185.833 90.690 C 185.833 90.598,185.927 90.425,186.042 90.304 C 186.731 89.575,186.750 89.369,186.750 82.614 C 186.750 77.560,186.704 76.096,186.542 76.042 C 186.427 76.003,186.333 75.866,186.333 75.736 C 186.333 75.606,186.258 75.500,186.167 75.500 C 186.075 75.500,186.000 75.393,186.000 75.262 C 186.000 74.947,184.394 73.333,184.080 73.333 C 183.944 73.333,183.833 73.259,183.833 73.169 C 183.833 73.078,183.533 72.956,183.167 72.897 C 182.800 72.839,182.500 72.726,182.500 72.646 C 182.500 72.564,163.170 72.501,138.250 72.501 C 113.330 72.501,94.000 72.564,94.000 72.646 M182.500 73.978 C 182.500 74.058,182.760 74.165,183.078 74.217 C 183.894 74.349,185.524 76.057,185.253 76.495 C 185.202 76.577,185.237 76.691,185.331 76.748 C 185.554 76.887,185.564 88.774,185.341 88.912 C 185.253 88.966,185.217 89.105,185.261 89.220 C 185.305 89.334,185.190 89.591,185.004 89.791 C 184.819 89.990,184.667 90.229,184.667 90.322 C 184.667 90.415,184.448 90.604,184.182 90.742 C 183.915 90.880,183.669 91.077,183.635 91.180 C 183.600 91.282,183.219 91.406,182.786 91.455 C 182.354 91.503,182.000 91.609,182.000 91.688 C 182.000 91.891,94.911 91.878,94.539 91.676 C 94.380 91.589,93.969 91.473,93.625 91.418 C 93.281 91.363,93.000 91.247,93.000 91.159 C 93.000 91.072,92.906 90.998,92.792 90.994 C 92.473 90.986,91.890 90.442,91.760 90.032 C 91.696 89.831,91.574 89.667,91.489 89.667 C 91.403 89.667,91.333 89.479,91.333 89.250 C 91.333 89.021,91.258 88.833,91.167 88.833 C 91.059 88.833,91.000 86.667,91.000 82.667 C 91.000 78.667,91.059 76.500,91.167 76.500 C 91.258 76.500,91.333 76.387,91.333 76.250 C 91.333 76.112,91.408 76.000,91.500 76.000 C 91.592 76.000,91.667 75.899,91.667 75.776 C 91.667 75.355,92.853 74.309,93.438 74.214 C 93.747 74.164,94.000 74.058,94.000 73.978 C 94.000 73.897,113.302 73.833,138.250 73.833 C 163.198 73.833,182.500 73.897,182.500 73.978 M10.406 139.649 C 10.454 139.727,10.119 139.841,9.661 139.902 C 9.097 139.977,8.763 140.118,8.624 140.339 C 8.512 140.519,8.331 140.667,8.222 140.667 C 7.990 140.667,6.943 141.635,6.780 142.000 C 6.598 142.409,6.262 142.908,6.083 143.036 C 5.838 143.211,5.857 156.474,6.103 156.631 C 6.205 156.696,6.345 156.938,6.414 157.167 C 6.547 157.608,8.046 159.167,8.338 159.167 C 8.433 159.167,8.553 159.278,8.605 159.413 C 8.661 159.560,9.029 159.703,9.516 159.768 C 9.966 159.828,10.333 159.942,10.333 160.021 C 10.333 160.104,29.449 160.167,54.333 160.167 C 89.421 160.167,98.334 160.124,98.336 159.958 C 98.338 159.819,98.392 159.833,98.500 160.000 C 98.591 160.142,98.663 160.166,98.664 160.056 C 98.666 159.950,98.967 159.812,99.333 159.750 C 99.700 159.688,100.000 159.569,100.000 159.485 C 100.000 159.402,100.081 159.333,100.180 159.333 C 100.459 159.333,102.000 157.735,102.000 157.446 C 102.000 157.305,102.145 157.143,102.322 157.087 C 103.032 156.862,103.082 143.239,102.375 142.667 C 102.169 142.500,102.000 142.282,102.000 142.184 C 102.000 141.543,99.648 139.833,98.766 139.833 C 98.528 139.833,98.333 139.758,98.333 139.667 C 98.333 139.436,55.097 139.436,54.666 139.667 C 54.456 139.779,54.319 139.779,54.249 139.665 C 54.180 139.553,46.859 139.498,32.231 139.502 C 20.179 139.505,10.358 139.571,10.406 139.649 M98.194 140.979 C 98.049 141.072,98.247 141.151,98.772 141.210 C 99.212 141.260,99.600 141.383,99.633 141.484 C 99.667 141.584,99.769 141.667,99.860 141.667 C 100.075 141.667,101.000 142.591,101.000 142.807 C 101.000 142.898,101.078 142.998,101.174 143.030 C 101.863 143.260,101.858 156.409,101.169 156.638 C 101.076 156.669,101.000 156.783,101.000 156.891 C 101.000 157.179,100.193 158.000,99.910 158.000 C 99.776 158.000,99.667 158.074,99.667 158.165 C 99.667 158.255,99.367 158.377,99.000 158.436 C 98.633 158.495,98.333 158.608,98.333 158.688 C 98.333 158.770,79.257 158.833,54.333 158.833 C 29.410 158.833,10.333 158.770,10.333 158.688 C 10.333 158.608,10.033 158.495,9.667 158.436 C 9.300 158.377,9.000 158.255,9.000 158.165 C 9.000 158.074,8.899 158.000,8.776 158.000 C 8.495 158.000,7.833 157.439,7.833 157.201 C 7.833 157.103,7.702 156.893,7.542 156.732 C 7.049 156.240,7.004 144.338,7.491 143.270 C 7.679 142.857,7.833 142.444,7.833 142.354 C 7.833 142.263,7.983 142.142,8.167 142.083 C 8.350 142.025,8.500 141.908,8.500 141.822 C 8.500 141.737,8.606 141.667,8.736 141.667 C 8.866 141.667,9.000 141.584,9.033 141.484 C 9.067 141.383,9.448 141.261,9.880 141.212 C 10.313 141.163,10.667 141.058,10.667 140.978 C 10.667 140.896,29.774 140.834,54.542 140.836 C 78.673 140.837,98.317 140.902,98.194 140.979 " stroke="none" fill="#84e4fc" fill-rule="evenodd"></path><path id="path1" d="M138.000 48.833 C 138.000 48.925,138.112 49.000,138.250 49.000 C 138.387 49.000,138.500 48.925,138.500 48.833 C 138.500 48.742,138.387 48.667,138.250 48.667 C 138.112 48.667,138.000 48.742,138.000 48.833 M78.333 49.500 C 78.171 49.605,88.609 49.662,107.958 49.664 C 127.766 49.666,137.833 49.611,137.833 49.500 C 137.833 49.274,78.683 49.274,78.333 49.500 M138.708 49.444 C 138.544 49.510,138.509 51.959,138.540 61.056 L 138.581 72.583 138.625 61.125 L 138.669 49.667 168.511 49.667 C 188.363 49.667,198.319 49.611,198.250 49.500 C 198.145 49.329,139.130 49.274,138.708 49.444 M138.500 104.490 C 138.500 112.052,138.557 116.000,138.667 116.000 C 138.776 116.000,138.833 112.087,138.833 104.593 C 138.833 97.168,138.775 93.150,138.667 93.083 C 138.556 93.015,138.500 96.859,138.500 104.490 M258.500 104.583 C 258.500 112.083,258.557 116.000,258.667 116.000 C 258.776 116.000,258.833 112.083,258.833 104.583 C 258.833 97.083,258.776 93.167,258.667 93.167 C 258.557 93.167,258.500 97.083,258.500 104.583 M53.959 124.625 C 53.982 129.277,54.021 134.546,54.046 136.333 C 54.071 138.121,54.108 134.315,54.129 127.875 C 54.150 121.435,54.110 116.167,54.042 116.167 C 53.973 116.167,53.936 119.973,53.959 124.625 M298.333 139.667 C 298.333 139.758,298.101 139.833,297.817 139.833 C 296.145 139.833,293.667 142.411,293.667 144.150 C 293.667 144.526,293.592 144.833,293.500 144.833 C 293.392 144.833,293.334 146.651,293.336 149.958 C 293.338 153.329,293.394 154.998,293.500 154.833 C 293.615 154.655,293.662 154.838,293.664 155.474 C 293.667 156.319,293.949 157.088,294.458 157.634 C 294.573 157.757,294.667 157.927,294.667 158.012 C 294.667 158.258,295.309 158.833,295.583 158.833 C 295.721 158.833,295.833 158.906,295.833 158.996 C 295.833 159.203,297.206 159.833,297.658 159.833 C 297.846 159.833,298.000 159.908,298.000 160.000 C 298.000 160.111,312.806 160.167,342.083 160.167 C 366.968 160.167,386.167 160.104,386.167 160.022 C 386.167 159.942,386.515 159.837,386.942 159.789 C 387.408 159.737,387.777 159.595,387.867 159.434 C 387.949 159.287,388.107 159.167,388.217 159.166 C 388.453 159.166,389.667 157.913,389.667 157.669 C 389.667 157.576,389.737 157.500,389.822 157.500 C 389.908 157.500,390.030 157.331,390.095 157.125 C 390.159 156.919,390.295 156.696,390.397 156.631 C 390.529 156.547,390.583 154.564,390.583 149.833 C 390.583 145.103,390.529 143.120,390.397 143.036 C 390.295 142.970,390.159 142.748,390.095 142.542 C 390.030 142.335,389.908 142.167,389.822 142.167 C 389.737 142.167,389.667 142.088,389.667 141.992 C 389.667 141.744,388.591 140.667,388.343 140.667 C 388.230 140.667,388.012 140.515,387.860 140.329 C 387.674 140.102,387.296 139.958,386.708 139.889 C 386.227 139.833,385.833 139.722,385.833 139.643 C 385.833 139.397,342.375 139.461,342.286 139.708 C 342.225 139.875,342.140 139.875,341.857 139.708 C 341.403 139.440,298.333 139.399,298.333 139.667 M386.000 140.978 C 386.000 141.058,386.288 141.161,386.640 141.209 C 387.339 141.302,388.833 142.570,388.833 143.068 C 388.833 143.214,388.908 143.333,389.000 143.333 C 389.092 143.333,389.167 143.483,389.167 143.667 C 389.167 143.850,389.223 144.000,389.292 144.000 C 389.360 144.000,389.417 146.625,389.417 149.833 C 389.417 153.042,389.360 155.667,389.292 155.667 C 389.223 155.667,389.167 155.854,389.167 156.083 C 389.167 156.313,389.092 156.500,389.000 156.500 C 388.908 156.500,388.833 156.615,388.833 156.755 C 388.833 156.896,388.721 157.054,388.583 157.106 C 388.446 157.159,388.333 157.344,388.333 157.518 C 388.333 157.691,388.226 157.833,388.095 157.833 C 387.964 157.833,387.737 157.953,387.591 158.100 C 387.444 158.246,387.028 158.406,386.666 158.455 C 386.303 158.503,386.047 158.608,386.097 158.688 C 386.147 158.770,367.092 158.833,342.083 158.833 C 316.433 158.833,298.019 158.771,298.072 158.685 C 298.122 158.604,297.817 158.485,297.395 158.422 C 296.606 158.304,295.500 157.381,295.500 156.840 C 295.500 156.745,295.426 156.667,295.335 156.667 C 295.245 156.667,295.123 156.367,295.064 156.000 C 295.005 155.633,294.892 155.333,294.812 155.333 C 294.732 155.333,294.667 152.896,294.667 149.917 C 294.667 146.938,294.732 144.500,294.811 144.500 C 294.891 144.500,294.999 144.183,295.051 143.795 C 295.103 143.408,295.225 143.064,295.323 143.031 C 295.420 142.999,295.500 142.898,295.500 142.807 C 295.500 142.584,296.428 141.667,296.654 141.667 C 296.753 141.667,296.833 141.593,296.833 141.502 C 296.833 141.411,297.133 141.289,297.500 141.231 C 297.867 141.172,298.167 141.059,298.167 140.979 C 298.167 140.896,317.207 140.833,342.083 140.833 C 366.810 140.833,386.000 140.897,386.000 140.978 " stroke="none" fill="#b7e876" fill-rule="evenodd"></path><path id="path2" d="M153.591 5.654 C 153.539 5.738,153.272 5.857,152.998 5.917 C 152.724 5.977,152.500 6.096,152.500 6.180 C 152.500 6.264,152.400 6.333,152.277 6.333 C 152.011 6.333,150.333 7.933,150.333 8.187 C 150.333 8.285,150.210 8.602,150.060 8.891 C 149.909 9.180,149.721 9.547,149.643 9.706 C 149.450 10.096,149.459 21.261,149.653 21.627 C 149.892 22.081,150.333 23.123,150.333 23.234 C 150.333 23.360,151.815 24.772,152.535 25.333 L 153.070 25.750 198.208 25.750 C 228.109 25.750,243.386 25.694,243.464 25.583 C 243.530 25.492,243.832 25.279,244.135 25.110 C 245.329 24.445,246.667 22.660,246.667 21.731 C 246.667 21.512,246.742 21.333,246.833 21.333 C 246.941 21.333,247.000 19.333,247.000 15.667 C 247.000 12.000,246.941 10.000,246.833 10.000 C 246.742 10.000,246.667 9.819,246.667 9.597 C 246.667 9.171,246.170 8.170,245.958 8.168 C 245.890 8.167,245.833 8.063,245.833 7.936 C 245.833 7.637,244.530 6.333,244.230 6.333 C 244.104 6.333,244.000 6.264,244.000 6.180 C 244.000 6.096,243.775 5.977,243.500 5.917 C 243.225 5.856,243.000 5.738,243.000 5.653 C 243.000 5.446,153.719 5.447,153.591 5.654 M242.667 7.000 C 242.667 7.092,242.850 7.167,243.075 7.167 C 243.300 7.167,243.543 7.271,243.617 7.398 C 243.690 7.525,243.893 7.657,244.067 7.690 C 244.242 7.723,244.593 8.125,244.848 8.583 L 245.311 9.417 245.322 15.698 C 245.328 19.198,245.268 22.021,245.185 22.072 C 245.104 22.122,244.989 22.353,244.931 22.584 C 244.800 23.107,244.335 23.667,244.031 23.667 C 243.906 23.667,243.667 23.835,243.500 24.042 L 243.196 24.417 198.373 24.417 C 158.857 24.417,153.493 24.387,153.067 24.167 C 152.559 23.904,151.667 23.105,151.667 22.913 C 151.667 22.792,151.237 21.769,150.986 21.294 C 150.902 21.135,150.833 18.602,150.833 15.667 C 150.833 12.731,150.902 10.199,150.986 10.039 C 151.070 9.880,151.267 9.450,151.423 9.083 C 151.746 8.328,152.293 7.667,152.595 7.667 C 152.706 7.667,152.841 7.554,152.894 7.417 C 152.946 7.279,153.179 7.167,153.411 7.167 C 153.643 7.167,153.833 7.092,153.833 7.000 C 153.833 6.889,168.750 6.833,198.250 6.833 C 227.750 6.833,242.667 6.889,242.667 7.000 M78.667 48.833 C 78.667 48.944,88.667 49.000,108.333 49.000 C 128.000 49.000,138.000 48.944,138.000 48.833 C 138.000 48.723,128.000 48.667,108.333 48.667 C 88.667 48.667,78.667 48.723,78.667 48.833 M138.500 48.833 C 138.500 48.944,148.500 49.000,168.167 49.000 C 187.833 49.000,197.833 48.944,197.833 48.833 C 197.833 48.723,187.833 48.667,168.167 48.667 C 148.500 48.667,138.500 48.723,138.500 48.833 M138.746 61.083 C 138.746 67.408,138.766 69.972,138.792 66.779 C 138.817 63.587,138.817 58.412,138.792 55.279 C 138.766 52.147,138.745 54.758,138.746 61.083 M212.926 72.978 C 211.932 73.508,210.212 75.178,210.067 75.754 C 210.010 75.983,209.896 76.211,209.815 76.261 C 209.733 76.312,209.667 76.607,209.667 76.917 C 209.667 77.227,209.592 77.527,209.500 77.583 C 209.395 77.648,209.333 79.582,209.333 82.833 C 209.333 86.085,209.395 88.018,209.500 88.083 C 209.592 88.140,209.667 88.407,209.667 88.677 C 209.667 88.946,209.742 89.167,209.833 89.167 C 209.925 89.167,210.000 89.320,210.000 89.507 C 210.000 90.445,212.269 92.573,213.475 92.765 C 213.856 92.826,214.167 92.941,214.167 93.021 C 214.167 93.270,257.791 93.207,257.881 92.958 C 257.941 92.792,258.027 92.792,258.309 92.958 C 258.763 93.226,302.000 93.268,302.000 93.000 C 302.000 92.908,302.187 92.833,302.416 92.833 C 302.890 92.833,304.167 92.319,304.167 92.127 C 304.167 92.057,304.260 92.000,304.375 91.999 C 304.672 91.998,305.667 91.030,305.667 90.742 C 305.667 90.609,305.725 90.500,305.795 90.500 C 305.866 90.500,306.062 90.219,306.231 89.875 C 306.399 89.531,306.604 89.120,306.685 88.961 C 306.865 88.610,306.886 76.500,306.707 76.500 C 306.638 76.500,306.414 76.135,306.209 75.688 C 305.831 74.864,304.422 73.334,304.042 73.333 C 303.927 73.333,303.833 73.259,303.833 73.169 C 303.833 73.078,303.533 72.956,303.167 72.897 C 302.800 72.839,302.500 72.725,302.500 72.645 C 302.500 72.563,283.277 72.508,258.125 72.519 L 213.750 72.538 212.926 72.978 M302.167 73.979 C 302.167 74.059,302.467 74.172,302.833 74.231 C 303.200 74.289,303.500 74.411,303.500 74.502 C 303.500 74.593,303.606 74.667,303.735 74.667 C 303.865 74.667,304.166 74.910,304.404 75.208 C 304.643 75.506,304.912 75.841,305.003 75.951 C 305.093 76.062,305.167 76.306,305.167 76.493 C 305.167 76.680,305.242 76.833,305.333 76.833 C 305.548 76.833,305.561 88.222,305.347 88.627 C 305.263 88.786,305.072 89.198,304.923 89.542 C 304.773 89.885,304.580 90.167,304.492 90.167 C 304.405 90.167,304.333 90.279,304.333 90.417 C 304.333 90.554,304.248 90.667,304.145 90.667 C 304.041 90.667,303.809 90.835,303.631 91.042 L 303.305 91.417 258.444 91.466 C 215.611 91.513,213.557 91.501,213.000 91.217 C 212.157 90.785,211.511 90.099,211.393 89.507 C 211.337 89.224,211.225 88.953,211.145 88.903 C 210.953 88.785,210.956 76.713,211.148 76.595 C 211.230 76.544,211.346 76.305,211.407 76.063 C 211.589 75.336,212.754 74.312,213.515 74.210 C 213.878 74.162,214.215 74.057,214.264 73.978 C 214.382 73.787,302.167 73.788,302.167 73.979 M94.583 91.667 C 94.652 91.777,109.418 91.833,138.343 91.833 C 167.337 91.833,182.000 91.777,182.000 91.667 C 182.000 91.556,167.302 91.500,138.240 91.500 C 109.109 91.500,94.515 91.556,94.583 91.667 M94.500 92.958 C 94.500 93.070,120.050 93.068,132.917 92.955 C 135.667 92.931,128.148 92.894,116.208 92.872 C 104.269 92.851,94.500 92.890,94.500 92.958 M160.333 92.998 C 172.204 93.045,181.988 93.027,182.075 92.958 C 182.162 92.890,172.450 92.851,160.492 92.873 L 138.750 92.913 160.333 92.998 M53.912 128.000 C 53.912 134.371,53.933 136.977,53.958 133.792 C 53.984 130.606,53.984 125.394,53.958 122.208 C 53.933 119.023,53.912 121.629,53.912 128.000 M154.083 139.667 C 154.027 139.758,153.865 139.833,153.724 139.833 C 153.355 139.833,152.274 140.360,152.117 140.616 C 152.043 140.736,151.898 140.833,151.793 140.833 C 151.525 140.833,150.667 141.683,150.667 141.948 C 150.667 142.068,150.610 142.167,150.542 142.168 C 150.332 142.169,149.833 143.169,149.833 143.587 C 149.833 143.803,149.758 144.027,149.667 144.083 C 149.456 144.214,149.438 155.550,149.648 155.961 C 149.730 156.120,149.934 156.531,150.103 156.875 C 150.271 157.219,150.459 157.500,150.520 157.500 C 150.581 157.500,150.677 157.669,150.735 157.875 C 150.792 158.081,151.140 158.475,151.507 158.750 C 151.875 159.025,152.288 159.351,152.426 159.475 C 152.563 159.598,152.976 159.740,153.342 159.789 C 153.708 159.838,154.048 159.943,154.097 160.022 C 154.227 160.233,242.287 160.210,242.417 160.000 C 242.473 159.908,242.632 159.833,242.769 159.833 C 243.150 159.833,244.500 159.180,244.500 158.996 C 244.500 158.906,244.594 158.831,244.708 158.828 C 245.027 158.819,245.610 158.275,245.740 157.866 C 245.804 157.665,245.920 157.500,245.998 157.500 C 246.076 157.500,246.190 157.275,246.250 157.000 C 246.310 156.725,246.429 156.500,246.513 156.500 C 246.598 156.500,246.667 156.313,246.667 156.083 C 246.667 155.854,246.742 155.667,246.833 155.667 C 246.941 155.667,247.000 153.667,247.000 150.000 C 247.000 146.333,246.941 144.333,246.833 144.333 C 246.742 144.333,246.664 144.127,246.661 143.875 C 246.658 143.623,246.546 143.271,246.411 143.093 C 246.277 142.915,246.167 142.674,246.167 142.557 C 246.167 141.953,243.527 139.833,242.776 139.833 C 242.635 139.833,242.473 139.758,242.417 139.667 C 242.253 139.403,198.794 139.440,198.529 139.704 C 198.368 139.865,198.256 139.865,197.998 139.704 C 197.575 139.440,154.246 139.403,154.083 139.667 M241.833 141.000 C 241.833 141.092,242.028 141.167,242.266 141.167 C 243.246 141.167,244.713 142.213,244.927 143.064 C 244.987 143.305,245.104 143.544,245.185 143.595 C 245.397 143.726,245.379 156.167,245.167 156.167 C 245.075 156.167,244.999 156.335,244.997 156.542 C 244.993 157.145,243.629 158.348,242.826 158.455 C 242.459 158.505,242.118 158.610,242.069 158.689 C 241.945 158.891,154.743 158.877,154.373 158.676 C 154.214 158.589,153.802 158.473,153.458 158.418 C 153.115 158.363,152.833 158.259,152.833 158.186 C 152.833 158.113,152.646 157.968,152.417 157.864 C 152.188 157.759,152.000 157.560,152.000 157.420 C 152.000 157.281,151.930 157.167,151.846 157.167 C 151.629 157.167,151.167 156.192,151.167 155.734 C 151.167 155.525,151.092 155.307,151.000 155.250 C 150.895 155.185,150.833 153.196,150.833 149.833 C 150.833 146.471,150.895 144.482,151.000 144.417 C 151.092 144.360,151.167 144.139,151.167 143.926 C 151.167 142.843,152.674 141.316,153.853 141.202 C 154.301 141.159,154.667 141.059,154.667 140.979 C 154.667 140.896,173.541 140.833,198.250 140.833 C 227.194 140.833,241.833 140.889,241.833 141.000 M298.167 141.000 C 298.167 141.111,312.917 141.167,342.083 141.167 C 371.250 141.167,386.000 141.111,386.000 141.000 C 386.000 140.889,371.250 140.833,342.083 140.833 C 312.917 140.833,298.167 140.889,298.167 141.000 M293.333 144.583 C 293.333 144.721,293.408 144.833,293.500 144.833 C 293.592 144.833,293.667 144.721,293.667 144.583 C 293.667 144.446,293.592 144.333,293.500 144.333 C 293.408 144.333,293.333 144.446,293.333 144.583 M294.667 149.917 C 294.667 153.417,294.726 155.333,294.833 155.333 C 294.941 155.333,295.000 153.417,295.000 149.917 C 295.000 146.417,294.941 144.500,294.833 144.500 C 294.726 144.500,294.667 146.417,294.667 149.917 M101.574 149.917 C 101.574 152.758,101.597 153.944,101.625 152.552 C 101.652 151.160,101.653 148.835,101.625 147.385 C 101.597 145.936,101.574 147.075,101.574 149.917 M102.833 149.833 C 102.833 153.056,102.893 154.833,103.000 154.833 C 103.107 154.833,103.167 153.056,103.167 149.833 C 103.167 146.611,103.107 144.833,103.000 144.833 C 102.893 144.833,102.833 146.611,102.833 149.833 M293.429 154.945 C 293.370 155.097,293.400 155.300,293.495 155.395 C 293.613 155.513,293.667 155.426,293.667 155.117 C 293.667 154.603,293.583 154.542,293.429 154.945 " stroke="none" fill="#eda9fc" fill-rule="evenodd"></path><path id="path3" d="M78.000 37.625 L 78.000 49.417 107.916 49.373 L 137.831 49.330 137.874 60.954 C 137.914 71.873,137.934 72.582,138.208 72.635 C 138.484 72.688,138.500 72.049,138.500 61.099 L 138.500 49.506 138.875 49.415 C 139.081 49.365,152.619 49.345,168.958 49.370 L 198.667 49.417 198.667 37.625 L 198.667 25.833 198.247 25.833 L 197.827 25.833 197.872 37.417 L 197.917 49.000 138.292 49.000 L 78.667 49.000 78.667 37.417 C 78.667 25.944,78.663 25.833,78.333 25.833 C 78.003 25.833,78.000 25.944,78.000 37.625 M137.944 92.944 C 137.883 93.006,137.833 98.218,137.833 104.528 L 137.833 116.000 95.958 116.000 L 54.083 116.000 54.125 127.708 C 54.169 139.897,54.173 140.007,54.585 139.665 C 54.800 139.486,54.833 137.949,54.833 128.063 L 54.833 116.667 126.333 116.667 L 197.833 116.667 197.836 128.042 C 197.838 139.277,197.872 139.982,198.400 139.780 C 198.641 139.687,198.667 138.567,198.667 128.172 L 198.667 116.667 270.167 116.667 L 341.667 116.667 341.667 128.172 C 341.667 138.567,341.692 139.687,341.933 139.780 C 342.080 139.836,342.267 139.777,342.348 139.649 C 342.644 139.181,342.535 116.216,342.236 116.101 C 342.091 116.046,323.191 116.000,300.236 116.000 L 258.500 116.000 258.500 104.495 C 258.500 94.099,258.474 92.980,258.233 92.887 C 257.706 92.685,257.672 93.390,257.669 104.625 L 257.667 116.000 198.083 116.000 L 138.500 116.000 138.500 104.417 C 138.500 92.666,138.487 92.402,137.944 92.944 " stroke="none" fill="#696969" fill-rule="evenodd"></path></g></svg>