<svg width="123" height="68" viewBox="0 0 123 68" fill="none" xmlns="http://www.w3.org/2000/svg">
<g opacity="0.5">
<rect x="20.5115" y="0.5" width="34.9731" height="17.9931" rx="2.5" stroke="#85CDCA"/>
<rect x="64.2578" y="0.5" width="35.2058" height="17.9931" rx="2.5" stroke="#85CDCA"/>
<rect x="0.5" y="24.5552" width="35.2058" height="17.9931" rx="2.5" stroke="#85CDCA"/>
<rect x="65.8865" y="48.6104" width="35.2058" height="17.9931" rx="2.5" stroke="#85CDCA"/>
<rect x="43.7808" y="24.5552" width="35.2058" height="17.9931" rx="2.5" stroke="#85CDCA"/>
<ellipse cx="6.58462" cy="29.6896" rx="3.49039" ry="3.31034" fill="#85CDCA"/>
<ellipse cx="49.8654" cy="30.131" rx="3.49039" ry="3.31034" fill="#85CDCA"/>
<ellipse cx="70.5751" cy="6.07585" rx="3.49038" ry="3.31034" fill="#85CDCA"/>
<ellipse cx="71.9711" cy="54.1862" rx="3.49039" ry="3.31034" fill="#85CDCA"/>
<ellipse cx="26.1308" cy="6.07585" rx="3.49038" ry="3.31034" fill="#85CDCA"/>
<line x1="31.0173" y1="4.69312" x2="47.0731" y2="4.69312" stroke="#85CDCA"/>
<line x1="75.4614" y1="4.69312" x2="91.5172" y2="4.69312" stroke="#85CDCA"/>
<line x1="54.9846" y1="28.3069" x2="71.0404" y2="28.3069" stroke="#85CDCA"/>
<line x1="11.2385" y1="28.3069" x2="27.2943" y2="28.3069" stroke="#85CDCA"/>
<line x1="77.0903" y1="52.5828" x2="93.1461" y2="52.5828" stroke="#85CDCA"/>
<line x1="31.0173" y1="7.78275" x2="47.0731" y2="7.78275" stroke="#85CDCA"/>
<line x1="75.4614" y1="7.78275" x2="91.5172" y2="7.78275" stroke="#85CDCA"/>
<line x1="54.9846" y1="31.3965" x2="71.0404" y2="31.3965" stroke="#85CDCA"/>
<line x1="11.2385" y1="31.3965" x2="27.2943" y2="31.3965" stroke="#85CDCA"/>
<line x1="77.0903" y1="55.6724" x2="93.1461" y2="55.6724" stroke="#85CDCA"/>
<line x1="31.0173" y1="10.8724" x2="47.0731" y2="10.8724" stroke="#85CDCA"/>
<rect x="87.2942" y="24.5552" width="35.2058" height="17.9931" rx="2.5" stroke="#85CDCA"/>
<ellipse cx="93.1461" cy="29.6896" rx="3.49038" ry="3.31034" fill="#85CDCA"/>
<line x1="98.498" y1="28.3069" x2="114.554" y2="28.3069" stroke="#85CDCA"/>
<line x1="98.498" y1="31.3965" x2="114.554" y2="31.3965" stroke="#85CDCA"/>
<line x1="98.498" y1="34.4862" x2="114.554" y2="34.4862" stroke="#85CDCA"/>
<line x1="75.4614" y1="10.8724" x2="91.5172" y2="10.8724" stroke="#85CDCA"/>
<line x1="54.9846" y1="34.4862" x2="71.0404" y2="34.4862" stroke="#85CDCA"/>
<line x1="11.2385" y1="34.4862" x2="27.2943" y2="34.4862" stroke="#85CDCA"/>
<path d="M77.0903 58.4897H93.1461" stroke="#85CDCA"/>
</g>
</svg>
